<svg id="eJePmyG3iUR1" xmlns="http://www.w3.org/2000/svg" xmlns:xlink="http://www.w3.org/1999/xlink" viewBox="0 0 829 364.829070" shape-rendering="geometricPrecision" text-rendering="geometricPrecision"><style><![CDATA[#eJePmyG3iUR2_to {animation: eJePmyG3iUR2_to__to 3000ms linear 1 normal forwards}@keyframes eJePmyG3iUR2_to__to { 0% {transform: translate(127.435089px,237.676468px)} 16.666667% {transform: translate(89px,237.676468px)} 33.333333% {transform: translate(18px,237.676468px)} 50% {transform: translate(-45px,237.676468px)} 66.666667% {transform: translate(-121px,237.676468px)} 100% {transform: translate(-121px,237.676468px)}} #eJePmyG3iUR8_to {animation: eJePmyG3iUR8_to__to 3000ms linear 1 normal forwards}@keyframes eJePmyG3iUR8_to__to { 0% {transform: translate(-185.500000px,-267.585000px)} 16.666667% {transform: translate(-244px,-267.585000px)} 33.333333% {transform: translate(-299px,-267.585000px)} 50% {transform: translate(-352px,-267.585000px)} 66.666667% {transform: translate(-415px,-267.585000px)} 100% {transform: translate(-415px,-267.585000px)}} #eJePmyG3iUR21_to {animation: eJePmyG3iUR21_to__to 3000ms linear 1 normal forwards}@keyframes eJePmyG3iUR21_to__to { 0% {transform: translate(600.259766px,307.079041px)} 16.666667% {transform: translate(600px,315px)} 33.333333% {transform: translate(600px,305px)} 50% {transform: translate(600px,313px)} 66.666667% {transform: translate(600px,303px)} 100% {transform: translate(600px,303px)}} #eJePmyG3iUR23_to {animation: eJePmyG3iUR23_to__to 3000ms linear 1 normal forwards}@keyframes eJePmyG3iUR23_to__to { 0% {transform: translate(315.759766px,298.068178px)} 16.666667% {transform: translate(315.759766px,294px)} 33.333333% {transform: translate(315.759766px,300px)} 50% {transform: translate(315.759766px,297px)} 66.666667% {transform: translate(315.759766px,301px)} 100% {transform: translate(315.759766px,301px)}} #eJePmyG3iUR23_tr {animation: eJePmyG3iUR23_tr__tr 3000ms linear 1 normal forwards}@keyframes eJePmyG3iUR23_tr__tr { 0% {transform: rotate(0deg)} 16.666667% {transform: rotate(32400deg)} 100% {transform: rotate(32400deg)}} #eJePmyG3iUR37_to {animation: eJePmyG3iUR37_to__to 3000ms linear 1 normal forwards}@keyframes eJePmyG3iUR37_to__to { 0% {transform: translate(-185.500000px,-267.585000px)} 16.666667% {transform: translate(-185.500000px,-265px)} 33.333333% {transform: translate(-185.500000px,-267px)} 50% {transform: translate(-185.500000px,-264px)} 66.666667% {transform: translate(-185.500000px,-267px)} 100% {transform: translate(-185.500000px,-267px)}}]]></style><g id="eJePmyG3iUR2_to" transform="translate(127.435089,237.676468)"><g id="eJePmyG3iUR2" transform="translate(-127.435089,-237.676468)"><path id="eJePmyG3iUR3" d="M432.129880,567.974490C429.279790,590.304490,418.799800,610.734490,407.619630,630.414490C407.250000,631.084490,406.869630,631.744490,406.479980,632.414490L290.279790,632.414490C287.929690,631.804490,285.609860,631.134490,283.299790,630.414490C270.175331,626.418605,257.784862,620.322984,246.609850,612.364490C203.859850,581.564490,187.409660,523.364490,194.839850,471.214490C199.459970,438.814490,213.679700,405.734490,241.369640,388.284490C255.989760,379.054490,274.769540,376.054490,291.599640,379.484490C292.040070,379.564490,292.480010,379.664490,292.929720,379.754490C307.409720,383.014490,320.309600,391.114490,327.649930,404.164490C340.849640,427.614490,332.989780,456.664490,326.500030,482.764490C320.029820,508.864490,316.519560,540.104490,335.299830,559.354490C329.099640,541.104490,335.219760,519.334490,350.029830,506.994490C361.219770,497.684490,376.799830,494.194490,391.009830,497.084490C392.369690,497.374490,393.710020,497.704490,395.029830,498.104490C398.220027,499.038746,401.295771,500.326746,404.199750,501.944490C426.349610,514.314520,435.319820,542.804510,432.129880,567.974490Z" transform="matrix(1 0 0 1 -185.50000000000000 -267.58499999999998)" fill="rgb(242,242,242)" stroke="none" stroke-width="1" stroke-miterlimit="1"/><path id="eJePmyG3iUR4" d="M363.230000,630.414500C366.449730,631.164500,369.679710,631.824500,372.929710,632.414500L355.359860,632.414500C353.059570,631.794500,350.769530,631.134500,348.500000,630.414500Q341.014660,628.074500,333.759770,625.044500C314.359860,616.904500,296.489770,604.684500,282.969770,588.424500C276.357604,580.546702,270.958133,571.726219,266.949770,562.254500C262.603262,551.549058,259.840968,540.267045,258.750060,528.764500C256.299860,505.164500,258.799860,480.914500,263.469790,457.734500C268.289112,433.709661,276.068499,410.375011,286.629940,388.264500Q288.534940,384.289560,290.569880,380.364500C290.758979,379.927990,291.139016,379.603232,291.599670,379.484500C292.061290,379.395021,292.539558,379.492107,292.929750,379.754500C293.902321,380.312485,294.267235,381.534609,293.759830,382.534500C282.870432,403.770331,274.615937,426.256872,269.179750,449.494500C263.859920,472.164500,260.839900,495.884500,261.869690,519.194500C262.849690,540.974500,268.540100,562.394500,281.449770,580.204440C293.239770,596.464440,309.519590,609.284440,327.529850,618.014440C338.929281,623.468523,350.904070,627.627836,363.230000,630.414500Z" transform="matrix(1 0 0 1 -185.50000000000000 -267.58499999999998)" fill="rgb(255,255,255)" stroke="none" stroke-width="1" stroke-miterlimit="1"/><path id="eJePmyG3iUR5" d="M401.790000,632.414500L396.609820,632.414500C396.029750,631.754500,395.469690,631.084500,394.919880,630.414500C383.120879,616.078549,375.127684,598.998594,371.679650,580.754500C367.492184,557.986866,370.749701,534.475939,380.969650,513.704500C383.820961,507.879979,387.180656,502.318411,391.009650,497.084500C392.369510,497.374500,393.709840,497.704500,395.029650,498.104500C384.958200,511.448380,378.183980,526.984199,375.259650,543.444500C369.976374,574.681647,379.066231,606.635313,400,630.414500C400.579590,631.084480,401.179690,631.754520,401.790000,632.414500Z" transform="matrix(1 0 0 1 -185.50000000000000 -267.58499999999998)" fill="rgb(255,255,255)" stroke="none" stroke-width="1" stroke-miterlimit="1"/></g></g><g id="eJePmyG3iUR6"><g id="eJePmyG3iUR7"><g id="eJePmyG3iUR8_to" transform="translate(-185.500000,-267.585000)"><path id="eJePmyG3iUR8" d="M868.429380,615.407640C869.181570,621.300940,871.947430,626.692790,874.898080,631.886700C874.995630,632.063520,875.096020,632.237700,875.198860,632.414530L905.866210,632.414530C906.486450,632.253530,907.098690,632.076710,907.708360,631.886700C911.172146,630.832110,914.442218,629.223363,917.391510,627.122970C928.674010,618.994290,933.015510,603.634250,931.054510,589.870900C929.835180,581.319960,926.082330,572.589530,918.774450,567.984160C914.806091,565.567237,910.071495,564.737764,905.517840,565.661680C905.401600,565.682800,905.285490,565.709180,905.166840,565.732940C901.332926,566.474082,897.998496,568.818346,896.003540,572.175180C892.519890,578.364070,894.594250,586.030890,896.307020,592.919180C898.014630,599.807460,898.941020,608.052260,893.984590,613.132690C895.463667,608.806631,894.492156,604.019078,891.443784,600.611750C888.395412,597.204421,883.745078,595.708133,879.281710,596.698490C878.922820,596.775040,878.569080,596.862120,878.220710,596.967700C877.378759,597.214271,876.567014,597.554199,875.800600,597.981150C869.954900,601.245790,867.587490,608.764820,868.429380,615.407640Z" transform="translate(0,0)" fill="rgb(242,242,242)" stroke="none" stroke-width="1" stroke-miterlimit="1"/></g><path id="eJePmyG3iUR9" d="M886.613320,631.886700C885.763580,632.084640,884.911130,632.258810,884.053390,632.414530L888.690390,632.414530C889.297480,632.250910,889.901860,632.076710,890.500830,631.886700Q892.476360,631.269120,894.391050,630.469460C899.568467,628.367441,904.165466,625.052969,907.795470,620.804770C909.540550,618.725676,910.965578,616.397790,912.023470,613.898030C913.170575,611.072660,913.899577,608.095125,914.187470,605.059390C914.713709,598.783573,914.293814,592.464306,912.941850,586.313290C911.669945,579.972689,909.616822,573.814243,906.829460,567.978870Q906.326690,566.929810,905.789640,565.893930C905.739735,565.778725,905.639436,565.693014,905.517860,565.661680C905.396040,565.638073,905.269829,565.663696,905.166860,565.732940C904.910182,565.880202,904.813872,566.202739,904.947780,566.466630C907.821698,572.071163,910.000212,578.005783,911.434920,584.138630C912.912538,590.153894,913.561624,596.342797,913.364180,602.533740C913.258626,608.291689,911.461506,613.891362,908.196630,618.635380C905.021596,622.907748,900.845363,626.334466,896.035260,628.614130C893.026735,630.053554,889.866363,631.151261,886.613320,631.886700Z" transform="matrix(1 0 0 1 -185.50000000000000 -267.58499999999998)" fill="rgb(255,255,255)" stroke="none" stroke-width="1" stroke-miterlimit="1"/><path id="eJePmyG3iUR10" d="M876.436620,632.414530L877.803760,632.414530C877.956850,632.240350,878.104660,632.063530,878.249760,631.886700C881.363728,628.103179,883.473278,623.595468,884.383280,618.780520C885.488426,612.771721,884.628705,606.566755,881.931470,601.084790C881.178952,599.547590,880.292263,598.079788,879.281720,596.698460C878.922830,596.775010,878.569090,596.862090,878.220720,596.967670C880.878768,600.489361,882.666611,604.589551,883.438390,608.933730C884.832753,617.177788,882.433785,625.610953,876.908990,631.886730C876.756080,632.063520,876.597700,632.240350,876.436620,632.414530Z" transform="matrix(1 0 0 1 -185.50000000000000 -267.58499999999998)" fill="rgb(255,255,255)" stroke="none" stroke-width="1" stroke-miterlimit="1"/></g><path id="eJePmyG3iUR11" d="M1014.500000,631.414500C1014.498309,631.966083,1014.051583,632.412809,1013.500000,632.414500L186.500000,632.414500C185.947715,632.414500,185.500000,631.966785,185.500000,631.414500C185.500000,630.862215,185.947715,630.414500,186.500000,630.414500L1013.500000,630.414500C1014.051583,630.416191,1014.498309,630.862917,1014.500000,631.414500Z" transform="matrix(1 0 0 1 -185.50000000000000 -267.58499999999998)" fill="rgb(63,61,86)" stroke="none" stroke-width="1" stroke-miterlimit="1"/></g><path id="eJePmyG3iUR12" d="M592.009770,480.093700L496.028770,480.093700L495.011230,450.583000C494.922131,447.994064,495.970582,445.495823,497.880607,443.745872C499.790632,441.995920,502.370869,441.169583,504.942140,441.484370L560.796630,448.323730L560.803470,448.323730C578.043821,448.370179,591.998477,462.353320,592.009770,479.593730Z" transform="matrix(1 0 0 1 -185.50000000000000 -267.58499999999998)" fill="rgb(87,64,154)" stroke="none" stroke-width="1" stroke-miterlimit="1"/><path id="eJePmyG3iUR13" d="M549.230820,375.414500L482.288710,375.414500C480.490675,375.414017,478.766145,376.128070,477.494742,377.399472C476.223340,378.670875,475.509287,380.395405,475.509770,382.193440L475.509770,449.135550C475.509287,450.933586,476.223339,452.658117,477.494742,453.929521C478.766144,455.200925,480.490674,455.914980,482.288710,455.914500L549.230820,455.914500C551.028865,455.914994,552.753410,455.200945,554.024824,453.929540C555.296239,452.658134,556.010300,450.933595,556.009820,449.135550L556.009820,382.193440C556.010300,380.395396,555.296239,378.670858,554.024824,377.399454C552.753409,376.128050,551.028864,375.414004,549.230820,375.414500Z" transform="matrix(1 0 0 1 -185.50005666499982 -264.51978394000002)" fill="rgb(204,204,204)" stroke="none" stroke-width="1" stroke-miterlimit="1"/><path id="eJePmyG3iUR14" d="M556.009770,382.193440L556.009770,391.090810L475.509770,391.090810L475.509770,382.193440C475.509287,380.395405,476.223340,378.670875,477.494742,377.399472C478.766145,376.128070,480.490675,375.414017,482.288710,375.414500L549.230820,375.414500C551.028856,375.414017,552.753387,376.128069,554.024791,377.399472C555.296195,378.670874,556.010250,380.395404,556.009770,382.193440Z" transform="matrix(1 0 0 1 -185.50000000000000 -267.58499999999998)" fill="rgb(179,179,179)" stroke="none" stroke-width="1" stroke-miterlimit="1"/><path id="eJePmyG3iUR15" d="M716.760520,393.877050C715.819733,390.840195,713.582124,388.376029,710.649794,387.147614C707.717463,385.919198,704.391628,386.052720,701.567210,387.512250L609.470660,354.469520L605.414330,377.476780L697.217730,402.722180C700.046244,407.407351,705.931966,409.236509,710.917843,406.979885C715.903720,404.723261,718.413800,399.094136,716.760520,393.877050Z" transform="matrix(1 0 0 1 -185.50000000000000 -267.58499999999998)" fill="rgb(255,184,184)" stroke="none" stroke-width="1" stroke-miterlimit="1"/><path id="eJePmyG3iUR16" d="M716.760520,393.877050C715.819733,390.840195,713.582124,388.376029,710.649794,387.147614C707.717463,385.919198,704.391628,386.052720,701.567210,387.512250L609.470660,354.469520L605.414330,377.476780L697.217730,402.722180C700.046244,407.407351,705.931966,409.236509,710.917843,406.979885C715.903720,404.723261,718.413800,399.094136,716.760520,393.877050Z" transform="matrix(1 0 0 1 -185.50000000000000 -267.58499999999998)" opacity="0.2" fill="rgb(0,0,0)" stroke="none" stroke-width="1" stroke-miterlimit="1"/><path id="eJePmyG3iUR17" d="M625.817320,358.661880L617.120580,381.382110C616.619849,382.690199,615.574544,383.715551,614.257049,384.190982C612.939555,384.666414,611.480367,384.544832,610.259720,383.857920L589.123480,371.961650C582.252718,369.286164,578.842294,361.555613,581.498279,354.677290C584.154265,347.798966,591.875110,344.366627,598.760940,347.003090L622.363140,352.237730C623.730475,352.541424,624.897902,353.425243,625.561212,354.658878C626.224521,355.892513,626.318011,357.353773,625.817320,358.661880Z" transform="matrix(1 0 0 1 -185.50000000000000 -267.58499999999998)" fill="rgb(87,64,154)" stroke="none" stroke-width="1" stroke-miterlimit="1"/><path id="eJePmyG3iUR18" d="M724.009770,414.914500L691.009770,429.914500L695.342360,446.225500C703.708931,477.723176,705.929309,510.537704,701.882120,542.875350L701.882120,542.875350L726.009780,547.914500L746.009780,496.914500L739.009780,438.914500Z" transform="matrix(1 0 0 1 -185.50000000000000 -267.58499999999998)" fill="rgb(87,64,154)" stroke="none" stroke-width="1" stroke-miterlimit="1"/><path id="eJePmyG3iUR19" d="M788.759770,490.414500C767.077640,490.414500,749.408200,506.176500,748.550770,525.914500L828.968770,525.914500C828.111330,506.176460,810.441890,490.414500,788.759770,490.414500Z" transform="matrix(1 0 0 1 -185.50000000000000 -267.58499999999998)" fill="rgb(63,61,86)" stroke="none" stroke-width="1" stroke-miterlimit="1"/><path id="eJePmyG3iUR20" d="M771.881350,493.816050C770.752930,404.717660,720.009770,412.914500,720.009770,412.914500C720.009770,412.914500,720.958980,440.647830,721.415040,441.510320C753.750490,502.689890,700.384770,574.414130,632.455040,561.219180Q630.533900,560.846010,628.763630,560.462040C610.899645,556.732412,599.008495,539.763374,601.600350,521.699200C608.291930,467.963580,575.009730,468.914500,575.009730,468.914500L526.343260,468.914500L501.069910,446.168600C499.258523,444.538358,496.756641,443.912400,494.390971,444.497563C492.025301,445.082727,490.103738,446.802851,489.261230,449.089550L486.009770,457.914550C486.009770,457.914550,438.009770,462.914550,442.009770,509.914550L456.849610,509.914550C456.813779,511.249963,456.867285,512.586277,457.009770,513.914550L567.760690,513.014110C574.252560,512.961330,579.982940,518.221790,580.009690,524.713820C580.023108,527.907366,578.736381,530.968875,576.445554,533.193965C574.154726,535.419056,571.057063,536.616127,567.865260,536.509760L550.009800,535.914550C544.509800,560.414550,558.009800,576.914550,572.884800,587.289550C586.889796,596.916224,603.508297,602.020330,620.502460,601.914550L669.009800,601.914550C732.009800,601.914550,743.009800,548.914550,743.009800,548.914550C776.009770,534.914500,771.881350,493.816050,771.881350,493.816050Z" transform="matrix(1 0 0 1 -185.50000000000000 -267.58499999999998)" fill="rgb(63,61,86)" stroke="none" stroke-width="1" stroke-miterlimit="1"/><g id="eJePmyG3iUR21_to" transform="translate(600.259766,307.079041)"><circle id="eJePmyG3iUR21" r="56.250000" transform="translate(0.000234,-0.000041)" fill="rgb(63,61,86)" stroke="none" stroke-width="1" stroke-miterlimit="1"/></g><circle id="eJePmyG3iUR22" r="13.786800" transform="matrix(1 0 0 1 600.25999999999999 307.07900000000001)" fill="rgb(255,255,255)" stroke="none" stroke-width="1" stroke-miterlimit="1"/><g id="eJePmyG3iUR23_to" transform="translate(315.759766,298.068178)"><g id="eJePmyG3iUR23_tr" transform="rotate(0)"><circle id="eJePmyG3iUR23" r="64.750000" transform="translate(0.000234,-0.000041)" fill="rgb(63,61,86)" stroke="none" stroke-width="1" stroke-miterlimit="1"/></g></g><circle id="eJePmyG3iUR24" r="15.870100" transform="matrix(1 0 0 1 316.25999999999999 298.57900000000001)" fill="rgb(255,255,255)" stroke="none" stroke-width="1" stroke-miterlimit="1"/><path id="eJePmyG3iUR25" d="M691.103520,434.346630L679.230000,402.097110C677.980269,398.702654,678.130193,394.950767,679.646789,391.666852C681.163385,388.382937,683.922418,385.836005,687.316910,384.586370L721.356910,372.055120C727.329457,369.855768,733.931076,370.119106,739.709461,372.787201C745.487845,375.455297,749.969650,380.309590,752.168910,386.282170C753.150781,388.936537,753.652272,391.744504,753.649910,394.574650C753.624129,401.852146,750.323109,408.731269,744.662120,413.304650C742.642887,414.924547,740.373033,416.204362,737.941900,417.093720Z" transform="matrix(1 0 0 1 -185.50000000000000 -267.58499999999998)" fill="rgb(63,61,86)" stroke="none" stroke-width="1" stroke-miterlimit="1"/><path id="eJePmyG3iUR26" d="M753.149900,394.574470C753.144271,401.704838,749.908294,408.448687,744.349610,412.914470C735.827474,410.666581,728.725680,404.783561,724.931224,396.828569C721.136768,388.873577,721.033880,379.652144,724.649900,371.614470C731.596962,370.103728,738.854521,371.818447,744.390861,376.278600C749.927200,380.738753,753.147370,387.465039,753.149900,394.574470Z" transform="matrix(1 0 0 1 -185.50000000000000 -267.58499999999998)" fill="rgb(87,64,154)" stroke="none" stroke-width="1" stroke-miterlimit="1"/><ellipse id="eJePmyG3iUR27" rx="14" ry="17" transform="matrix(1 0 0 1 265.00999999999999 231.82900000000001)" fill="rgb(87,64,154)" stroke="none" stroke-width="1" stroke-miterlimit="1"/><polygon id="eJePmyG3iUR28" points="450.071000,292.005000 462.331000,292.005000 468.164000,260.208000 450.069000,260.209000 450.071000,292.005000" fill="rgb(255,184,184)" stroke="none" stroke-width="1" stroke-miterlimit="1"/><path id="eJePmyG3iUR29" d="M632.443630,555.587940L656.587430,555.586940L656.588430,555.586940C660.669170,555.586826,664.582810,557.207826,667.468352,560.093321C670.353894,562.978817,671.974958,566.892430,671.974910,570.973170L671.974910,571.473170L632.444390,571.474630Z" transform="matrix(1 0 0 1 -185.50000000000000 -267.58499999999998)" fill="rgb(47,46,65)" stroke="none" stroke-width="1" stroke-miterlimit="1"/><path id="eJePmyG3iUR30" d="M649.801360,546.540000Q649.587130,546.540000,649.371180,546.519490L632.404630,545.284140C631.013988,545.155112,629.762079,544.387700,629.016109,543.206995C628.270138,542.026291,628.114672,540.566145,628.595310,539.254840L651.301850,488.240200C651.629814,487.320736,651.558652,486.306056,651.105560,485.441370C650.653489,484.566039,649.848846,483.925664,648.894380,483.681600C638.217130,480.890600,610.822380,473.458950,587.108000,464.763600C576.948090,461.038020,570.549160,455.654230,568.089200,448.761650C564.846040,439.674740,569.643890,431.387650,569.849700,431.039970L570.010590,430.767510L592.325290,432.795830L616.516450,434.853450L669.529880,463.281180C678.741625,468.262769,682.580121,479.485919,678.348480,489.065360L653.907560,543.873000C653.185205,545.494543,651.576521,546.539392,649.801360,546.540000Z" transform="matrix(1 0 0 1 -185.50000000000000 -267.58499999999998)" fill="rgb(47,46,65)" stroke="none" stroke-width="1" stroke-miterlimit="1"/><circle id="eJePmyG3iUR31" r="24.561000" transform="matrix(1 0 0 1 410.70499999999998 39.72020000000000)" fill="rgb(255,184,184)" stroke="none" stroke-width="1" stroke-miterlimit="1"/><polygon id="eJePmyG3iUR32" points="443.071000,295.005000 455.331000,295.005000 461.164000,263.208000 443.069000,263.209000 443.071000,295.005000" fill="rgb(255,184,184)" stroke="none" stroke-width="1" stroke-miterlimit="1"/><path id="eJePmyG3iUR33" d="M625.443630,558.587940L649.587430,558.586940L649.588430,558.586940C653.669170,558.586826,657.582810,560.207826,660.468352,563.093321C663.353894,565.978817,664.974958,569.892430,664.974910,573.973170L664.974910,574.473170L625.444390,574.474630Z" transform="matrix(1 0 0 1 -185.50000000000000 -267.58499999999998)" fill="rgb(47,46,65)" stroke="none" stroke-width="1" stroke-miterlimit="1"/><path id="eJePmyG3iUR34" d="M642.801360,549.540000Q642.587130,549.540000,642.371180,549.519490L625.404630,548.284140C624.013988,548.155112,622.762079,547.387700,622.016109,546.206995C621.270138,545.026291,621.114672,543.566145,621.595310,542.254840L644.301850,491.240200C644.629814,490.320736,644.558652,489.306056,644.105560,488.441370C643.653489,487.566039,642.848846,486.925664,641.894380,486.681600C631.217130,483.890600,603.822380,476.458950,580.108000,467.763600C569.948090,464.038020,563.549160,458.654230,561.089200,451.761650C557.846040,442.674740,562.643890,434.387650,562.849700,434.039970L563.010590,433.767510L585.325290,435.795830L609.516450,437.853450L662.529880,466.281180C671.741625,471.262769,675.580121,482.485919,671.348480,492.065360L646.907560,546.873000C646.185205,548.494543,644.576521,549.539392,642.801360,549.540000Z" transform="matrix(1 0 0 1 -185.50000000000000 -267.58499999999998)" fill="rgb(47,46,65)" stroke="none" stroke-width="1" stroke-miterlimit="1"/><path id="eJePmyG3iUR35" d="M603.780120,345.793860L577.780120,336.793860C577.780120,336.793860,561.458120,349.333860,569.299120,380.442420C573.392598,396.495614,572.200230,413.440905,565.899030,428.762670C565.140335,430.658367,564.265720,432.505587,563.280140,434.293860C562.294560,436.082133,592.280140,469.293860,619.280140,443.293860L608.780140,392.793860C608.780140,392.793860,625.280120,359.293860,603.780120,345.793860Z" transform="matrix(1 0 0 1 -185.50000000000000 -267.58499999999998)" fill="rgb(87,64,154)" stroke="none" stroke-width="1" stroke-miterlimit="1"/><path id="eJePmyG3iUR36" d="M599.254740,332.702000C595.759120,327.469690,593.000390,320.214440,596.849090,315.236090C600.648160,310.321930,608.141240,311.045910,613.959630,308.871430C622.063630,305.842760,626.763720,296.322130,625.297870,287.795790C623.832020,279.269450,616.987560,272.201370,608.833820,269.309340C600.680080,266.417310,591.485430,267.357860,583.500700,270.688210C573.671390,274.787910,565.239550,282.718490,561.703840,292.764460C558.168130,302.810430,560.058240,314.872540,567.393130,322.594090C575.256940,330.872430,587.598690,333.078630,599.015890,332.944760" transform="matrix(1 0 0 1 -185.50000000000000 -267.58499999999998)" fill="rgb(47,46,65)" stroke="none" stroke-width="1" stroke-miterlimit="1"/><g id="eJePmyG3iUR37_to" transform="translate(-185.500000,-267.585000)"><path id="eJePmyG3iUR37" d="M576.407850,288.069420C572.003010,291.655290,565.282580,290.062600,560.554250,286.915550C555.825920,283.768500,551.989180,279.287300,546.873250,276.819890C537.854030,272.469940,526.949460,275.361640,518.171540,280.179980C509.393620,284.998320,501.612380,291.654980,492.340300,295.436150C483.068220,299.217320,471.236370,299.404230,464.215460,292.264540C460.675594,302.520532,463.948986,313.894944,472.398905,320.700449C480.848823,327.505954,492.659535,328.280174,501.925560,322.635990C512.084960,316.447600,517.696610,303.472290,529.091480,300.056660C535.396980,298.166580,542.167800,299.688890,548.540650,301.337720C554.913500,302.986550,561.558480,304.768130,567.989770,303.364460C574.421060,301.960790,580.436770,296.181340,579.618570,289.649710Z" transform="translate(0,0)" fill="rgb(47,46,65)" stroke="none" stroke-width="1" stroke-miterlimit="1"/></g><path id="eJePmyG3iUR38" d="M715.538380,392.876660C714.230092,389.979082,711.705547,387.809823,708.644056,386.952591C705.582564,386.095359,702.298615,386.638213,699.675860,388.435080L604.206100,367.007920L603.019460,390.339860L697.236240,404.065440C700.621206,408.365835,706.687650,409.454829,711.357009,406.600276C716.026368,403.745723,717.822733,397.849900,715.538380,392.876660Z" transform="matrix(1 0 0 1 -185.50000000000000 -267.58499999999998)" fill="rgb(255,184,184)" stroke="none" stroke-width="1" stroke-miterlimit="1"/><path id="eJePmyG3iUR39" d="M620.945130,369.151350L615.118130,392.771010C614.782622,394.130893,613.871808,395.277391,612.623032,395.911746C611.374255,396.546100,609.911206,396.605479,608.615130,396.074410L586.172610,386.876880C579.019297,385.073797,574.675813,377.820167,576.463746,370.663053C578.251679,363.505938,585.496096,359.147105,592.656980,360.919880L616.724700,363.202430C618.119058,363.335100,619.386612,364.068126,620.197063,365.210494C621.007513,366.352862,621.280585,367.791421,620.945120,369.151310Z" transform="matrix(1 0 0 1 -185.50000000000000 -267.58499999999998)" fill="rgb(87,64,154)" stroke="none" stroke-width="1" stroke-miterlimit="1"/><circle id="eJePmyG3iUR40" r="7" transform="matrix(1 0 0 1 519.00999999999999 136.82900000000001)" fill="rgb(87,64,154)" stroke="none" stroke-width="1" stroke-miterlimit="1"/></svg>