<?xml version="1.0" encoding="UTF-8" standalone="no" ?>
<!DOCTYPE svg PUBLIC "-//W3C//DTD SVG 1.1//EN" "http://www.w3.org/Graphics/SVG/1.1/DTD/svg11.dtd">
<svg xmlns="http://www.w3.org/2000/svg" xmlns:xlink="http://www.w3.org/1999/xlink" version="1.1" width="1080" height="2000" viewBox="0 0 1080 2000" xml:space="preserve">
<desc>Created with Fabric.js 4.2.0</desc>
<defs>
</defs>
<rect x="0" y="0" width="100%" height="100%" fill="transparent"></rect>
<g transform="matrix(Infinity NaN NaN Infinity 0 0)" id="768da250-7b5b-4aec-9497-74273b48bbab"  >
</g>
<g transform="matrix(1 0 0 1 540 1000)" id="38b2ea42-2c09-4962-ac16-f9fcd6a8beb9"  >
<rect style="stroke: none; stroke-width: 1; stroke-dasharray: none; stroke-linecap: butt; stroke-dashoffset: 0; stroke-linejoin: miter; stroke-miterlimit: 4; fill: rgb(0,0,0); fill-opacity: 0; fill-rule: nonzero; opacity: 1;" vector-effect="non-scaling-stroke"  x="-540" y="-1000" rx="0" ry="0" width="1080" height="2000" />
</g>
<g transform="matrix(66.26 0 0 66.26 540 1624.66)"  >
<path style="stroke: rgb(0,0,0); stroke-width: 0; stroke-dasharray: none; stroke-linecap: butt; stroke-dashoffset: 0; stroke-linejoin: miter; stroke-miterlimit: 4; fill: rgb(255,255,255); fill-rule: nonzero; opacity: 1;" vector-effect="non-scaling-stroke"  transform=" translate(-17, -17.62)" d="M 10.2 12.074 C 10.04 12.074 9.889 12.107 9.75 12.164 L 16.55 18.453 C 16.845000000000002 18.726 17.141000000000002 18.726 17.438000000000002 18.453 L 24.250000000000004 12.164 C 24.111000000000004 12.107 23.960000000000004 12.074 23.800000000000004 12.074 L 10.2 12.074 z M 9.012 13.14 C 9.005 13.194 9 13.25 9 13.306000000000001 L 9 21.931 C 9 22.614 9.535 23.163 10.2 23.163 L 23.799999999999997 23.163 C 24.464999999999996 23.163 24.999999999999996 22.613 24.999999999999996 21.931 L 24.999999999999996 13.306000000000001 C 24.999999999999996 13.250000000000002 24.994999999999997 13.194 24.987999999999996 13.14 L 18.237999999999996 19.37 C 17.534999999999997 20.02 16.452999999999996 20.02 15.749999999999996 19.37 L 9.012999999999996 13.14 z" stroke-linecap="round" />
</g>
</svg>