<?xml version="1.0" encoding="UTF-8" standalone="no" ?>
<!DOCTYPE svg PUBLIC "-//W3C//DTD SVG 1.1//EN" "http://www.w3.org/Graphics/SVG/1.1/DTD/svg11.dtd">
<svg xmlns="http://www.w3.org/2000/svg" xmlns:xlink="http://www.w3.org/1999/xlink" version="1.1" width="150" height="150" viewBox="0 0 150 150" xml:space="preserve">
<desc>Created with Fabric.js 4.2.0</desc>
<defs>
</defs>
<rect x="0" y="0" width="100%" height="100%" fill="transparent"></rect>
<g transform="matrix(Infinity NaN NaN Infinity 0 0)" id="0e6e08e9-345c-4006-9678-22e4944f2f28"  >
</g>
<g transform="matrix(1 0 0 1 75 75)" id="e189ee8a-e8d8-4a56-9459-840f7a3e7c65"  >
<rect style="stroke: none; stroke-width: 1; stroke-dasharray: none; stroke-linecap: butt; stroke-dashoffset: 0; stroke-linejoin: miter; stroke-miterlimit: 4; fill: rgb(255,255,255); fill-opacity: 0; fill-rule: nonzero; opacity: 1;" vector-effect="non-scaling-stroke"  x="-75" y="-75" rx="0" ry="0" width="150" height="150" />
</g>
<g transform="matrix(1.26 0 0 1.26 75 75)"  >
<g style="" vector-effect="non-scaling-stroke"   >
		<g transform="matrix(6 0 0 6 0 0)"  >
<rect style="stroke: none; stroke-width: 1; stroke-dasharray: none; stroke-linecap: butt; stroke-dashoffset: 0; stroke-linejoin: miter; stroke-miterlimit: 4; fill: rgb(255,255,255); fill-opacity: 0; fill-rule: nonzero; opacity: 1;" vector-effect="non-scaling-stroke"  x="-12.5" y="-12.5" rx="0" ry="0" width="25" height="25" />
</g>
		<g transform="matrix(6 0 0 6 -15.3 14.16)"  >
<path style="stroke: none; stroke-width: 1; stroke-dasharray: none; stroke-linecap: butt; stroke-dashoffset: 0; stroke-linejoin: miter; stroke-miterlimit: 4; fill: rgb(246,209,14); fill-rule: nonzero; opacity: 1;" vector-effect="non-scaling-stroke"  transform=" translate(-9.9, -14.86)" d="M 2.88 18.52 C 2.88 14.51 6.18 11.2 10.2 11.2 C 12.969999999999999 11.2 15.399999999999999 12.77 16.64 15.059999999999999 C 17.48 16.619999999999997 16.330000000000002 18.509999999999998 14.56 18.509999999999998 L 5.81 18.509999999999998" stroke-linecap="round" />
</g>
		<g transform="matrix(6 0 0 6 0 7.41)"  >
<path style="stroke: rgb(75,53,141); stroke-width: 1; stroke-dasharray: none; stroke-linecap: round; stroke-dashoffset: 0; stroke-linejoin: round; stroke-miterlimit: 10; fill: none; fill-rule: nonzero; opacity: 1;" vector-effect="non-scaling-stroke"  transform=" translate(-12.45, -13.73)" d="M 22.02 18.52 C 22.02 13.27 17.7 8.95 12.45 8.95 C 7.199999999999999 8.95 2.879999999999999 13.27 2.879999999999999 18.52 C 7.989999999999999 18.52 13.409999999999998 18.52 18.52 18.52" stroke-linecap="round" />
</g>
		<g transform="matrix(6 0 0 6 -0.06 -29.4)"  >
<line style="stroke: rgb(75,53,141); stroke-width: 1; stroke-dasharray: none; stroke-linecap: round; stroke-dashoffset: 0; stroke-linejoin: round; stroke-miterlimit: 10; fill: none; fill-rule: nonzero; opacity: 1;" vector-effect="non-scaling-stroke"  x1="0" y1="1.12" x2="0" y2="-1.12" />
</g>
</g>
</g>
</svg>