<?xml version="1.0" encoding="UTF-8" standalone="no" ?>
<!DOCTYPE svg PUBLIC "-//W3C//DTD SVG 1.1//EN" "http://www.w3.org/Graphics/SVG/1.1/DTD/svg11.dtd">
<svg xmlns="http://www.w3.org/2000/svg" xmlns:xlink="http://www.w3.org/1999/xlink" version="1.1" width="1080" height="1080" viewBox="0 0 1080 1080" xml:space="preserve">
<desc>Created with Fabric.js 4.2.0</desc>
<defs>
</defs>
<rect x="0" y="0" width="100%" height="100%" fill="transparent"></rect>
<g transform="matrix(1 0 0 1 540 540)" id="71998dcf-fb91-4869-9c9d-f14342e82cef"  >
<rect style="stroke: none; stroke-width: 1; stroke-dasharray: none; stroke-linecap: butt; stroke-dashoffset: 0; stroke-linejoin: miter; stroke-miterlimit: 4; fill: rgb(255,255,255); fill-opacity: 0; fill-rule: nonzero; opacity: 1;" vector-effect="non-scaling-stroke"  x="-540" y="-540" rx="0" ry="0" width="1080" height="1080" />
</g>
<g transform="matrix(Infinity NaN NaN Infinity 0 0)" id="4074263e-862a-4bca-bbf9-c1d6e9d2b42a"  >
</g>
<g transform="matrix(95.9 0 0 95.9 540 540)"  >
<g style="" vector-effect="non-scaling-stroke"   >
		<g transform="matrix(0.74 0 0 0.74 0 0)" id="Rectangle"  >
<rect style="stroke: rgb(204,204,204); stroke-width: 1; stroke-dasharray: none; stroke-linecap: butt; stroke-dashoffset: 0; stroke-linejoin: miter; stroke-miterlimit: 4; fill: none; fill-rule: evenodd; opacity: 1;" vector-effect="non-scaling-stroke"  x="-13" y="-8.5" rx="2" ry="2" width="26" height="17" />
</g>
		<g transform="matrix(0.74 0 0 0.74 0 0)" id="Shape"  >
<path style="stroke: none; stroke-width: 1; stroke-dasharray: none; stroke-linecap: butt; stroke-dashoffset: 0; stroke-linejoin: miter; stroke-miterlimit: 4; fill: rgb(47,166,71); fill-rule: nonzero; opacity: 1;" vector-effect="non-scaling-stroke"  transform=" translate(-13.5, -9)" d="M 19.9894737 4 L 7.01052632 4 C 6.45789474 4 6 4.4400607 6 4.97116844 L 6 13.0288316 C 6 13.5599393 6.45789474 14 7.01052632 14 L 19.9894737 14 C 20.5421053 14 21 13.5599393 21 13.0288316 L 21 4.97116844 C 21 4.4400607 20.5421053 4 19.9894737 4 Z M 9.46086957 11 L 8.53913043 11 C 8.24347826 11 8 10.7741935 8 10.5 C 8 10.2258065 8.24347826 10 8.53913043 10 L 9.46086957 10 C 9.75652174 10 10 10.2258065 10 10.5 C 10 10.7741935 9.75652174 11 9.46086957 11 Z M 12.4608696 11 L 11.5391304 11 C 11.2434783 11 11 10.7741935 11 10.5 C 11 10.2258065 11.2434783 10 11.5391304 10 L 12.4608696 10 C 12.7565217 10 13 10.2258065 13 10.5 C 13 10.7741935 12.7565217 11 12.4608696 11 Z M 15.4608696 11 L 14.5391304 11 C 14.2434783 11 14 10.7741935 14 10.5 C 14 10.2258065 14.2434783 10 14.5391304 10 L 15.4608696 10 C 15.7565217 10 16 10.2258065 16 10.5 C 15.9826087 10.7741935 15.7565217 11 15.4608696 11 Z M 18.4608696 11 L 17.5391304 11 C 17.2434783 11 17 10.7741935 17 10.5 C 17 10.2258065 17.2434783 10 17.5391304 10 L 18.4608696 10 C 18.7565217 10 19 10.2258065 19 10.5 C 19 10.7741935 18.7565217 11 18.4608696 11 Z M 19 8.47402597 C 19 8.76623377 18.7662338 9 18.474026 9 L 16.525974 9 C 16.2337662 9 16 8.76623377 16 8.47402597 L 16 6.52597403 C 16 6.23376623 16.2337662 6 16.525974 6 L 18.474026 6 C 18.7662338 6 19 6.23376623 19 6.52597403 L 19 8.47402597 Z" stroke-linecap="round" />
</g>
</g>
</g>
</svg>