<?xml version="1.0" encoding="UTF-8" standalone="no" ?>
<!DOCTYPE svg PUBLIC "-//W3C//DTD SVG 1.1//EN" "http://www.w3.org/Graphics/SVG/1.1/DTD/svg11.dtd">
<svg xmlns="http://www.w3.org/2000/svg" xmlns:xlink="http://www.w3.org/1999/xlink" version="1.1" width="1080" height="1080" viewBox="0 0 1080 1080" xml:space="preserve">
<desc>Created with Fabric.js 4.2.0</desc>
<defs>
</defs>
<rect x="0" y="0" width="100%" height="100%" fill="transparent"></rect>
<g transform="matrix(1 0 0 1 540 540)" id="71998dcf-fb91-4869-9c9d-f14342e82cef"  >
<rect style="stroke: none; stroke-width: 1; stroke-dasharray: none; stroke-linecap: butt; stroke-dashoffset: 0; stroke-linejoin: miter; stroke-miterlimit: 4; fill: rgb(255,255,255); fill-opacity: 0; fill-rule: nonzero; opacity: 1;" vector-effect="non-scaling-stroke"  x="-540" y="-540" rx="0" ry="0" width="1080" height="1080" />
</g>
<g transform="matrix(Infinity NaN NaN Infinity 0 0)" id="4074263e-862a-4bca-bbf9-c1d6e9d2b42a"  >
</g>
<g transform="matrix(148.1 0 0 148.1 540 540)"  >
<g style="" vector-effect="non-scaling-stroke"   >
		<g transform="matrix(0.64 0 0 0.64 0 0)" id="Rectangle-Copy-5"  >
<path style="stroke: none; stroke-width: 1; stroke-dasharray: none; stroke-linecap: butt; stroke-dashoffset: 0; stroke-linejoin: miter; stroke-miterlimit: 4; fill: rgb(63,149,80); fill-rule: nonzero; opacity: 1;" vector-effect="non-scaling-stroke"  transform=" translate(-5.5, -5.5)" d="M 9 0 C 10.1045695 0 11 0.8954305 11 2 L 11 9 C 11 10.1045695 10.1045695 11 9 11 L 2 11 C 0.8954305 11 0 10.1045695 0 9 L 0 2 C 0 0.8954305 0.8954305 0 2 0 L 9 0 Z M 9 0.899999976 L 2 0.899999976 C 1.43298764 0.899999976 0.96617611 1.32901069 0.906454627 1.88014288 L 0.899999976 2 L 0.899999976 9 C 0.899999976 9.56701236 1.32901069 10.0338239 1.88014288 10.0935454 L 2 10.1 L 9 10.1 C 9.56701236 10.1 10.0338239 9.67098931 10.0935454 9.11985712 L 10.1 9 L 10.1 2 C 10.1 1.43298764 9.67098931 0.96617611 9.11985712 0.906454627 L 9 0.899999976 Z" stroke-linecap="round" />
</g>
		<g transform="matrix(0.64 0 0 0.64 0 0)" id="Rectangle-Copy-6"  >
<rect style="stroke: none; stroke-width: 1; stroke-dasharray: none; stroke-linecap: butt; stroke-dashoffset: 0; stroke-linejoin: miter; stroke-miterlimit: 4; fill: rgb(63,149,80); fill-rule: evenodd; opacity: 1;" vector-effect="non-scaling-stroke"  x="-3.5" y="-3.5" rx="3.5" ry="3.5" width="7" height="7" />
</g>
</g>
</g>
</svg>