<?xml version="1.0" encoding="UTF-8" standalone="no" ?>
<!DOCTYPE svg PUBLIC "-//W3C//DTD SVG 1.1//EN" "http://www.w3.org/Graphics/SVG/1.1/DTD/svg11.dtd">
<svg xmlns="http://www.w3.org/2000/svg" xmlns:xlink="http://www.w3.org/1999/xlink" version="1.1" width="1080" height="1080" viewBox="0 0 1080 1080" xml:space="preserve">
<desc>Created with Fabric.js 4.2.0</desc>
<defs>
</defs>
<rect x="0" y="0" width="100%" height="100%" fill="transparent"></rect>
<g transform="matrix(1 0 0 1 540 540)" id="d75cb9a1-3cc8-43b8-bf09-52ba2f53da6e"  >
<rect style="stroke: none; stroke-width: 1; stroke-dasharray: none; stroke-linecap: butt; stroke-dashoffset: 0; stroke-linejoin: miter; stroke-miterlimit: 4; fill: rgb(255,255,255); fill-opacity: 0; fill-rule: nonzero; opacity: 1;" vector-effect="non-scaling-stroke"  x="-540" y="-540" rx="0" ry="0" width="1080" height="1080" />
</g>
<g transform="matrix(1 0 0 1 540 540)" id="f990fa1e-d328-407e-a5c2-787aadb6d542"  >
</g>
<g transform="matrix(75.69 0 0 75.69 540 540)" id="Shape"  >
<path style="stroke: rgb(0,0,0); stroke-width: 0; stroke-dasharray: none; stroke-linecap: butt; stroke-dashoffset: 0; stroke-linejoin: miter; stroke-miterlimit: 4; fill: rgb(153,153,153); fill-rule: nonzero; opacity: 1;" vector-effect="non-scaling-stroke"  transform=" translate(-10, -9.65)" d="M 15.6 5.8 L 12.8 5.8 L 12.8 4.4 C 12.8 3.62680135 12.1731986 3 11.4 3 L 8.6 3 C 7.82680135 3 7.2 3.62680135 7.2 4.4 L 7.2 5.8 L 4.4 5.8 C 3.62680135 5.8 3 6.42680135 3 7.2 L 3 14.9 C 3 15.6731986 3.62680135 16.3 4.4 16.3 L 15.6 16.3 C 16.3731986 16.3 17 15.6731986 17 14.9 L 17 7.2 C 17 6.42680135 16.3731986 5.8 15.6 5.8 Z M 8.6 4.4 L 11.4 4.4 L 11.4 5.8 L 8.6 5.8 L 8.6 4.4 Z" stroke-linecap="round" />
</g>
</svg>